<mxfile host="app.diagrams.net" modified="2022-02-09T15:50:29.901Z" agent="5.0 (Macintosh; Intel Mac OS X 10_15_7) AppleWebKit/537.36 (KHTML, like Gecko) Chrome/97.0.4692.99 Safari/537.36" etag="6GO4Qg6cRHbFCz7ilwHb" version="16.5.5" type="github">
  <diagram id="C5RBs43oDa-KdzZeNtuy" name="Page-1">
    <mxGraphModel dx="946" dy="565" grid="1" gridSize="10" guides="1" tooltips="1" connect="1" arrows="1" fold="1" page="1" pageScale="1" pageWidth="827" pageHeight="1169" math="0" shadow="0">
      <root>
        <mxCell id="WIyWlLk6GJQsqaUBKTNV-0" />
        <mxCell id="WIyWlLk6GJQsqaUBKTNV-1" parent="WIyWlLk6GJQsqaUBKTNV-0" />
        <mxCell id="49svFmV6--7aAt8_EuEi-13" value="buttom 按鈕" style="swimlane;fontStyle=0;childLayout=stackLayout;horizontal=1;startSize=30;horizontalStack=0;resizeParent=1;resizeParentMax=0;resizeLast=0;collapsible=1;marginBottom=0;fontSize=15;" vertex="1" parent="WIyWlLk6GJQsqaUBKTNV-1">
          <mxGeometry x="40" y="445" width="355" height="150" as="geometry" />
        </mxCell>
        <mxCell id="49svFmV6--7aAt8_EuEi-14" value="Donate 捐贈" style="text;strokeColor=default;fillColor=none;align=left;verticalAlign=middle;spacingLeft=4;spacingRight=4;overflow=hidden;points=[[0,0.5],[1,0.5]];portConstraint=eastwest;rotatable=0;fontSize=15;" vertex="1" parent="49svFmV6--7aAt8_EuEi-13">
          <mxGeometry y="30" width="355" height="30" as="geometry" />
        </mxCell>
        <mxCell id="49svFmV6--7aAt8_EuEi-15" value="Get 獲取" style="text;strokeColor=default;fillColor=none;align=left;verticalAlign=middle;spacingLeft=4;spacingRight=4;overflow=hidden;points=[[0,0.5],[1,0.5]];portConstraint=eastwest;rotatable=0;fontSize=15;" vertex="1" parent="49svFmV6--7aAt8_EuEi-13">
          <mxGeometry y="60" width="355" height="30" as="geometry" />
        </mxCell>
        <mxCell id="49svFmV6--7aAt8_EuEi-16" value="Info 個人資料" style="text;strokeColor=none;fillColor=none;align=left;verticalAlign=middle;spacingLeft=4;spacingRight=4;overflow=hidden;points=[[0,0.5],[1,0.5]];portConstraint=eastwest;rotatable=0;fontSize=15;" vertex="1" parent="49svFmV6--7aAt8_EuEi-13">
          <mxGeometry y="90" width="355" height="30" as="geometry" />
        </mxCell>
        <mxCell id="49svFmV6--7aAt8_EuEi-17" value="setting 設定" style="text;align=left;verticalAlign=middle;spacingLeft=4;spacingRight=4;overflow=hidden;points=[[0,0.5],[1,0.5]];portConstraint=eastwest;rotatable=0;fontSize=15;strokeColor=default;" vertex="1" parent="49svFmV6--7aAt8_EuEi-13">
          <mxGeometry y="120" width="355" height="30" as="geometry" />
        </mxCell>
        <mxCell id="49svFmV6--7aAt8_EuEi-18" value="用戶主頁" style="rounded=1;whiteSpace=wrap;html=1;" vertex="1" parent="WIyWlLk6GJQsqaUBKTNV-1">
          <mxGeometry x="330" y="345" width="120" height="60" as="geometry" />
        </mxCell>
        <mxCell id="49svFmV6--7aAt8_EuEi-19" value="" style="endArrow=none;html=1;rounded=0;entryX=0.5;entryY=0;entryDx=0;entryDy=0;exitX=0;exitY=1;exitDx=0;exitDy=0;" edge="1" parent="WIyWlLk6GJQsqaUBKTNV-1" source="49svFmV6--7aAt8_EuEi-18" target="49svFmV6--7aAt8_EuEi-13">
          <mxGeometry width="50" height="50" relative="1" as="geometry">
            <mxPoint x="390" y="445" as="sourcePoint" />
            <mxPoint x="390" y="465.71067811865476" as="targetPoint" />
          </mxGeometry>
        </mxCell>
        <mxCell id="49svFmV6--7aAt8_EuEi-20" value="Information" style="swimlane;fontStyle=0;childLayout=stackLayout;horizontal=1;startSize=30;horizontalStack=0;resizeParent=1;resizeParentMax=0;resizeLast=0;collapsible=1;marginBottom=0;fontSize=15;" vertex="1" parent="WIyWlLk6GJQsqaUBKTNV-1">
          <mxGeometry x="410" y="445" width="410" height="150" as="geometry" />
        </mxCell>
        <mxCell id="49svFmV6--7aAt8_EuEi-21" value="About restaurant" style="text;strokeColor=default;fillColor=none;align=left;verticalAlign=middle;spacingLeft=4;spacingRight=4;overflow=hidden;points=[[0,0.5],[1,0.5]];portConstraint=eastwest;rotatable=0;fontSize=15;" vertex="1" parent="49svFmV6--7aAt8_EuEi-20">
          <mxGeometry y="30" width="410" height="30" as="geometry" />
        </mxCell>
        <mxCell id="49svFmV6--7aAt8_EuEi-22" value="advertisement" style="text;align=left;verticalAlign=middle;spacingLeft=4;spacingRight=4;overflow=hidden;points=[[0,0.5],[1,0.5]];portConstraint=eastwest;rotatable=0;fontSize=15;" vertex="1" parent="49svFmV6--7aAt8_EuEi-20">
          <mxGeometry y="60" width="410" height="30" as="geometry" />
        </mxCell>
        <mxCell id="49svFmV6--7aAt8_EuEi-23" value="Q&amp;A like (how to get、how it works、how to donate)&#xa;such as some useful instruction " style="text;align=left;verticalAlign=middle;spacingLeft=4;spacingRight=4;overflow=hidden;points=[[0,0.5],[1,0.5]];portConstraint=eastwest;rotatable=0;fontSize=15;strokeColor=default;" vertex="1" parent="49svFmV6--7aAt8_EuEi-20">
          <mxGeometry y="90" width="410" height="60" as="geometry" />
        </mxCell>
        <mxCell id="49svFmV6--7aAt8_EuEi-24" value="" style="endArrow=none;html=1;rounded=0;fontSize=15;exitX=0.5;exitY=0;exitDx=0;exitDy=0;entryX=1;entryY=1;entryDx=0;entryDy=0;" edge="1" parent="WIyWlLk6GJQsqaUBKTNV-1" source="49svFmV6--7aAt8_EuEi-20" target="49svFmV6--7aAt8_EuEi-18">
          <mxGeometry width="50" height="50" relative="1" as="geometry">
            <mxPoint x="450" y="445" as="sourcePoint" />
            <mxPoint x="500" y="395" as="targetPoint" />
          </mxGeometry>
        </mxCell>
        <mxCell id="49svFmV6--7aAt8_EuEi-25" value="" style="shape=actor;whiteSpace=wrap;html=1;fontSize=15;strokeColor=default;" vertex="1" parent="WIyWlLk6GJQsqaUBKTNV-1">
          <mxGeometry x="370" y="285" width="40" height="60" as="geometry" />
        </mxCell>
      </root>
    </mxGraphModel>
  </diagram>
</mxfile>
